# xmcd
# Copyright (C) 1995-1998 Ti Kan
#
# Track frame offsets:
#       150
#       16310
#       30812
#       45170
#       59335
#       74685
#       89670
#       108542
#       123955
#       137857
#       154660
#       171710
#       190722
#       204655
#       218917
#       234542
#       246790
#       259695
#       273675
#       295595
#
# Disc length: 4135 seconds
#
# Revision: 0
# Processed by: cddbd v1.5.2PL0 Copyright (c) Steve Scherf et al.
# Submitted via: CD-Transfer v1.0
#
DISCID=28102514
DTITLE=Three Dog Night - 
DYEAR=1900
DGENRE=
TTITLE0=Joy To The World
TTITLE1=Easy To Be Hard
TTITLE2=Family Of Man
TTITLE3=Sure As I'm Sitting Here
TTITLE4=Old Fashioned Love Song
TTITLE5=Mama Told Me (Not To Come)
TTITLE6=Try A Little Tenderness
TTITLE7=Shambala
TTITLE8=Let Me Serenade You
TTITLE9=Never Been To Spain
TTITLE10=Black And White
TTITLE11=Pieces Of April
TTITLE12=Liar
TTITLE13=Out In The Country
TTITLE14=Show Must Go On, The
TTITLE15=Eli's Coming
TTITLE16=One Man Band
TTITLE17=One
TTITLE18=Play Something Swet (Brick's Yard Blues)
TTITLE19=Celebrate
EXTD=
EXTT0=
EXTT1=
EXTT2=
EXTT3=
EXTT4=
EXTT5=
EXTT6=
EXTT7=
EXTT8=
EXTT9=
EXTT10=
EXTT11=
EXTT12=
EXTT13=
EXTT14=
EXTT15=
EXTT16=
EXTT17=
EXTT18=
EXTT19=
PLAYORDER=
